<svg width="203" height="25" viewBox="0 0 203 25" fill="none" xmlns="http://www.w3.org/2000/svg">
<g transform="translate(2.7, 0)">
<path d="M63.3986 0.91827C68.1061 0.863883 73.1141 0.705491 77.7856 1.12286C83.4143 1.62564 85.9383 8.68832 80.8455 12.0796C81.2884 12.3267 81.7603 12.5933 82.1482 12.9196C83.3176 13.9182 84.0328 15.3476 84.1307 16.8821C84.2556 18.7919 83.5846 20.2178 82.3637 21.6179C79.405 24.0667 75.4093 23.5332 71.7926 23.5219C68.1367 23.4943 64.4806 23.496 60.8249 23.5265L60.8286 1.00982L63.3986 0.91827ZM64.4678 20.1557C67.1452 20.1414 69.8227 20.1431 72.5001 20.1612C74.619 20.1705 77.884 20.4739 79.63 19.2942C80.104 18.5711 80.2339 18.3132 80.5563 17.51C80.3954 16.4577 80.3201 15.3519 79.3862 14.6703C77.5955 13.3634 67.2954 13.9175 64.5007 13.9312C64.418 15.5345 64.3224 18.5381 64.4678 20.1557ZM64.43 10.5404C68.5898 10.521 73.609 10.6947 77.7476 10.3488C78.1597 10.3143 78.7547 9.90002 79.0977 9.6494C81.0531 7.26454 79.7857 4.69453 77.0634 4.49863C73.0829 4.21186 68.4662 4.3503 64.4787 4.41628C64.3481 6.43271 64.4071 8.51612 64.43 10.5404Z" fill="#8859D8"/>
</g>
<g transform="translate(2.7, 0)">
<path d="M34.4131 0.917078C39.9121 0.888265 45.411 0.917078 50.9092 1.00318C50.8514 2.11343 50.8903 3.28234 50.9056 4.3977C45.5886 4.24545 39.5764 4.36344 34.2106 4.40896C34.1947 6.45658 34.1946 8.50436 34.2099 10.552C37.8956 10.3293 43.9587 10.5344 47.8146 10.5343L47.7994 13.9252C43.995 13.7264 38.3249 13.8959 34.4039 13.9508C34.0135 14.5212 34.1992 19.1791 34.2106 20.1612C39.4609 19.9661 45.6384 20.1104 50.9338 20.1013L50.9286 23.5134C44.3248 23.3895 37.2442 23.5017 30.6161 23.5225C30.4089 16.3704 30.5758 8.21709 30.6004 0.992948L34.4131 0.917078Z" fill="#8859D8"/>
</g>
<g transform="translate(6.9, 0)">
<path d="M139.034 0.908213C142.86 0.685207 149.676 0.7933 153.354 1.16549C160.96 1.93526 161.853 13.8906 152.537 14.7304C154.883 17.0841 158.491 20.9804 160.624 23.4827L155.884 23.5069C152.834 20.0913 149.743 16.7129 146.611 13.3726L144.86 11.4812C149.426 11.2865 157.529 13.1232 155.134 5.79079C154.169 4.83518 153.148 4.42566 151.792 4.39088C148.248 4.30035 144.64 4.38441 141.097 4.41902L141.101 23.5121L137.529 23.5202L137.52 9.44873C137.512 7.003 137.398 3.58496 137.575 1.20317C137.914 0.946405 138.543 0.961748 139.034 0.908213Z" fill="#8859D8"/>
</g>
<g transform="translate(8.8, 0)">
<path d="M179.51 1.0091L182.809 1.00944C186.313 8.43716 190.306 16.0664 193.642 23.4992L189.798 23.5122C187.215 18.6228 184.209 11.8801 181.824 6.8028C181.618 6.34417 181.512 5.98477 181.123 5.67857C180.741 6.02109 173.318 21.766 172.486 23.5079L168.575 23.5014C171.806 16.3458 175.99 8.11407 179.51 1.0091Z" fill="#8859D8"/>
</g>
<g transform="translate(2.7, 0)">
<path d="M93.9225 0.424581L97.5045 0.415888C97.421 7.86219 97.5062 16.0179 97.5045 23.4768L93.9003 23.4862C94.1987 16.8527 93.9259 7.23579 93.9225 0.424581Z" fill="#8859D8"/>
</g>
<path d="M0.880955 0.303784C2.07184 0.284592 3.00562 0.346834 4.19426 0.433803C9.26683 6.40582 14.6616 12.5028 19.8462 18.392C19.6632 12.7077 19.78 6.14491 19.8059 0.425335C21.2262 0.34044 21.9842 0.323492 23.399 0.425504C23.3902 2.92497 23.521 22.8071 23.264 23.1939L22.7154 23.2191L19.2682 23.2236C17.5105 21.433 15.0074 18.3524 13.2997 16.3681C10.0601 12.6334 6.84492 8.87779 3.65428 5.10128C3.58196 11.089 3.65601 17.2225 3.6612 23.2217L0.042683 23.234C-0.0578409 18.145 0.0912983 12.8837 0.0231289 7.77641C0.00738419 6.59134 -0.051092 1.28551 0.112065 0.484289L0.880955 0.303784Z" fill="#8859D8"/>
<g transform="translate(3.5, 0)">
<path fill-rule="evenodd" clip-rule="evenodd" d="M118.796 0C125.545 9.43316e-05 131.017 5.4719 131.017 12.2217C131.017 18.9715 125.545 24.4433 118.796 24.4434C112.047 24.4432 106.576 18.9714 106.576 12.2217C106.576 5.47197 112.047 0.000204179 118.796 0ZM118.796 3.66992C114.074 3.67032 110.246 7.49892 110.246 12.2217C110.246 16.9444 114.074 20.773 118.796 20.7734C123.518 20.7734 127.348 16.9447 127.348 12.2217C127.348 7.49868 123.518 3.66992 118.796 3.66992Z" fill="#E877B1"/>
</g>
</svg>
