<svg width="161" height="219" viewBox="0 0 161 219" fill="none" xmlns="http://www.w3.org/2000/svg">
<path d="M74.6199 0.260083C76.0691 0.00504869 78.3587 0.0320678 79.8686 0.0126758C101.259 -0.369876 121.891 7.92053 137.048 22.9876C147.52 33.1084 154.973 45.9307 158.575 60.0269C162.088 73.9663 160.733 100.469 160.788 115.892L160.93 218.929L87.3597 218.921L0.237194 219C-0.440608 176.054 0.593462 132.861 0.171823 89.8977C0.0911468 81.6826 0.127072 73.3693 1.80067 65.291C9.52384 28.0124 37.1877 4.40587 74.6199 0.260083ZM4.90878 214.645C31.2111 213.954 60.2553 214.267 86.7709 214.461L156.662 214.496L156.63 120.094C156.632 105.35 157.783 75.1075 154.619 62.2224C151.328 48.6826 144.317 36.3275 134.374 26.5463C120.064 12.1668 100.557 4.14084 80.249 4.27717C79.1531 4.28364 78.142 4.25426 77.0543 4.43936C55.8022 6.03539 37.2071 14.9498 23.2589 31.1863C14.8626 41.1567 9.05627 53.0364 6.35213 65.7776C3.78991 78.1409 4.61376 96.8019 4.77452 109.843C5.20323 144.699 4.15678 179.839 4.90878 214.645Z" fill="#D09638" style="fill:#D09638;fill:color(display-p3 0.8157 0.5882 0.2196);fill-opacity:1;"/>
<path d="M73.1166 11.4337C74.962 11.016 78.8463 11.0587 80.9058 11.0136C111.765 10.3657 141.701 32.9022 148.697 63.1725C152.208 78.363 150.658 100.884 150.666 116.924L150.666 208.57C132.676 207.812 109.899 208.78 90.9926 208.46C67.0914 209.542 35.7918 208.662 11.3512 208.669C10.5718 182.608 11.3365 152.652 11.312 126.165L11.2324 94.3455C11.2131 85.6832 10.8819 76.2934 12.3949 67.8056C14.3678 57.2969 18.6811 47.3687 25.014 38.7585C37.1106 22.4755 53.4719 14.3832 73.1166 11.4337ZM145.91 204.691L146.804 204.176C147.276 190.267 147.278 169.564 146.791 155.554C130.93 154.994 113.243 155.284 97.2489 155.272L15.3613 155.39C15.4526 171.447 15.6814 188.909 15.2753 204.912L99.3868 204.806C113.542 204.845 132.295 205.54 145.91 204.691ZM72.3408 109.207C73.2213 113.191 74.4957 123.475 77.0724 125.735L78.108 125.618C79.0581 124.182 79.2623 122.315 79.2647 120.619C79.3173 85.849 79.1161 51.0475 79.3039 16.297C79.3045 16.1236 78.9967 15.2935 78.9066 15.0692C77.9225 14.9151 78.0202 14.7868 77.1578 15.0229C67.3495 15.7305 62.4587 17.3966 53.239 21.1141L72.3408 109.207ZM89.6142 109.511C95.1953 83.0788 100.464 56.6062 107.264 30.4635C108.058 27.4091 108.738 24.2235 109.437 21.1445C98.5847 17.2724 94.6079 15.7879 83.0127 14.7762L83.0326 91.2747C83.0408 97.3027 82.0485 120.778 84.1004 124.927C85.5104 125.95 85.0441 125.954 86.3301 125.761C87.0609 122.418 89.2538 112.732 89.6142 109.511ZM65.1378 117.712C66.7971 121.228 67.8122 126.133 71.1964 127.931L71.8973 127.622C72.0863 125.087 51.764 27.845 49.7449 22.9037C41.0605 28.0547 36.8777 31.7365 30.1744 39.3929L65.1378 117.712ZM90.1419 130.651C93.3488 126.63 95.8851 119.959 97.9306 115.065C109.211 91.5718 121.831 63.3137 132.197 39.4164C125.866 32.03 121.115 28.1144 112.842 23.2189C106.927 49.3112 100.245 75.2905 95.2292 101.606C93.8321 108.936 90.1647 124.106 90.1419 130.651ZM15.5333 128.214L16.1085 128.358C24.1054 130.399 52.8956 143.342 57.6166 140.898C57.5294 139.443 56.7466 138.41 55.5536 137.535C42.914 128.259 30.1908 118.473 17.5162 109.313L15.4543 108.657C15.4146 115.177 15.4409 121.696 15.5333 128.214ZM15.6767 101.854C18.1089 103.445 18.5793 103.81 20.5516 105.936C29.8807 115.156 46.5117 124.579 56.6184 133.64C57.53 134.457 59.469 135.254 60.7181 135.305L61.3974 134.557C60.6479 130.834 21.5 83.5087 15.4602 74.8406C15.3724 80.855 14.9055 96.4597 15.6767 101.854ZM105.872 142.317C120.382 139.018 134.374 131.219 146.657 128.38C146.796 125.096 147.443 109.942 146.424 107.331C141.474 112.835 106.104 137.239 105.081 140.339L105.872 142.317ZM54.2003 150.958C54.4864 149.412 55.1914 147.031 54.5554 145.759C42.7163 141.625 27.1548 135.777 15.4982 132.376C15.3601 138.67 15.3286 144.967 15.4029 151.263C22.2992 151.254 48.9381 152.217 54.2003 150.958ZM146.801 151.454C146.863 148.294 147.453 135.23 146.215 133.385L145.868 133.187C136.43 135.465 118.394 142.673 107.895 146.157C107.254 147.493 107.818 149.138 108.117 150.712L108.57 151.221C120.923 151.236 134.548 150.972 146.801 151.454ZM27.3263 43.2024C21.438 50.0481 18.1802 61.4731 15.892 70.0487C18.7027 72.679 21.259 76.0397 23.6356 79.0789C34.7118 93.2454 46.0659 107.237 56.8355 121.635C57.6511 122.726 59.1144 124.981 60.0856 125.783C61.4448 127.551 62.6062 129.52 64.6335 130.261L65.2958 129.766C64.9635 125.877 28.8621 44.6628 27.3263 43.2024ZM134.688 43.111C130.904 53.8893 125.166 64.483 120.501 74.9068C112.789 92.1365 104.981 109.343 97.1343 126.508C96.6036 127.668 96.5065 129.018 96.8745 130.236C99.1756 130.832 100.501 128.057 101.684 126.315C111.381 114.401 120.866 102.316 130.138 90.0662C134.825 83.8626 140.859 74.9859 145.92 69.3469C144.361 61.2101 140.452 49.1864 134.688 43.111ZM146.113 75.5383C141.293 82.6166 102.028 131.785 101.103 134.613C102.246 135.667 101.747 135.346 103.365 135.687C109.161 131.256 141.783 104.637 146.226 106.021C147.268 103.488 147.26 78.3788 146.502 75.939L146.113 75.5383ZM58.5492 151.283L85.4502 151.197L104.025 151.167C100.716 136.112 93.1545 129.521 77.4843 130.228C65.6211 133.125 60.5403 139.529 58.5492 151.283Z" fill="#D09638" style="fill:#D09638;fill:color(display-p3 0.8157 0.5882 0.2196);fill-opacity:1;"/>
<path d="M26.1165 162.534C37.8217 162.142 131.516 161.238 136.729 163.331C137.654 163.703 137.587 163.944 138 164.932L137.499 166.347L136.124 166.859C111.365 166.217 86.5973 166.14 61.8365 166.627C56.5308 166.732 27.5374 167.967 25 165.271C25.0463 163.398 24.8326 164.125 26.1165 162.534Z" fill="#D3A259" style="fill:#D3A259;fill:color(display-p3 0.8275 0.6353 0.3490);fill-opacity:1;"/>
<path d="M41.9046 170.758C60.5556 169.999 89.5362 169.563 108.04 170.665C112.578 170.952 117.223 171.092 121.731 171.477C124.07 172.346 125.248 172.171 126 174.693C122.456 175.162 105.135 174.678 100.252 174.659C81.1482 174.447 62.0419 174.543 42.9409 174.945C39.6922 175.007 34.3708 175.343 32 173.153L32.0012 172.145C34.6035 169.621 38.4499 170.513 41.9046 170.758Z" fill="#D3A259" style="fill:#D3A259;fill:color(display-p3 0.8275 0.6353 0.3490);fill-opacity:1;"/>
<path d="M42.9726 170.65C61.311 169.999 89.8061 169.625 108 170.57C103.581 173.342 70.5804 170.857 63.0124 171.449C59.3457 171.736 39.8046 172.696 37 171.111C38.8781 171.149 41.3766 171.445 42.9726 170.65Z" fill="#D09638" style="fill:#D09638;fill:color(display-p3 0.8157 0.5882 0.2196);fill-opacity:1;"/>
<path d="M47.009 181.173L90.4776 181.134C97.7117 181.105 109.312 180.757 116.195 181.313C117.242 182.387 116.906 183.078 117 184.839L72.0911 184.898C65.514 184.913 54.0395 185.22 47.8737 184.69C46.6963 183.424 47.0735 183.142 47.009 181.173Z" fill="#D09638" style="fill:#D09638;fill:color(display-p3 0.8157 0.5882 0.2196);fill-opacity:1;"/>
<path d="M64.0673 193.195C71.7516 193.165 91.1699 192.654 98.1752 193.418C99.1806 194.632 98.8863 195.042 99 196.76C90.0776 196.811 73.1011 197.347 64.8081 196.629C63.6769 195.378 64.0622 195.135 64.0673 193.195Z" fill="#D09638" style="fill:#D09638;fill:color(display-p3 0.8157 0.5882 0.2196);fill-opacity:1;"/>
<path d="M121 171.099C122.591 171.157 129.06 170.807 129.707 171.159C130.038 173.661 130.265 172.943 129.375 174.674C127.574 175.027 126.951 175.03 125.122 174.972C124.396 171.935 123.258 172.145 121 171.099Z" fill="#D09638" style="fill:#D09638;fill:color(display-p3 0.8157 0.5882 0.2196);fill-opacity:1;"/>
<path d="M15.435 102C17.7126 103.706 18.1531 104.098 20 106.378L17.1576 110L15.2268 109.297C14.926 105.963 14.8592 105.251 15.435 102Z" fill="#D3A259" style="fill:#D3A259;fill:color(display-p3 0.8275 0.6353 0.3490);fill-opacity:1;"/>
</svg>
