<svg width="903" height="223" viewBox="0 0 903 223" fill="none" xmlns="http://www.w3.org/2000/svg">
<path d="M74.6199 2.26008C76.0691 2.00505 78.3587 2.03207 79.8686 2.01268C101.259 1.63012 121.891 9.92053 137.048 24.9876C147.52 35.1084 154.973 47.9307 158.575 62.0269C162.088 75.9663 160.733 102.469 160.788 117.892L160.93 220.929L87.3597 220.921L0.237194 221C-0.440608 178.054 0.593462 134.861 0.171823 91.8977C0.0911468 83.6826 0.127072 75.3693 1.80067 67.291C9.52384 30.0124 37.1877 6.40587 74.6199 2.26008ZM4.90878 216.645C31.2111 215.954 60.2553 216.267 86.7709 216.461L156.662 216.496L156.63 122.094C156.632 107.35 157.783 77.1075 154.619 64.2224C151.328 50.6826 144.317 38.3275 134.374 28.5463C120.064 14.1668 100.557 6.14084 80.249 6.27717C79.1531 6.28364 78.142 6.25426 77.0543 6.43936C55.8022 8.03539 37.2071 16.9498 23.2589 33.1863C14.8626 43.1567 9.05627 55.0364 6.35213 67.7776C3.78991 80.1409 4.61376 98.8019 4.77452 111.843C5.20323 146.699 4.15678 181.839 4.90878 216.645Z" fill="#D09638" style="fill:#D09638;fill:color(display-p3 0.8157 0.5882 0.2196);fill-opacity:1;"/>
<path d="M73.1166 13.4337C74.962 13.016 78.8463 13.0587 80.9058 13.0136C111.765 12.3657 141.701 34.9022 148.697 65.1725C152.208 80.363 150.658 102.884 150.666 118.924L150.666 210.57C132.676 209.812 109.899 210.78 90.9926 210.46C67.0914 211.542 35.7918 210.662 11.3512 210.669C10.5718 184.608 11.3365 154.652 11.312 128.165L11.2324 96.3455C11.2131 87.6832 10.8819 78.2934 12.3949 69.8056C14.3678 59.2969 18.6811 49.3687 25.014 40.7585C37.1106 24.4755 53.4719 16.3832 73.1166 13.4337ZM145.91 206.691L146.804 206.176C147.276 192.267 147.278 171.564 146.791 157.554C130.93 156.994 113.243 157.284 97.2489 157.272L15.3613 157.39C15.4526 173.447 15.6814 190.909 15.2753 206.912L99.3868 206.806C113.542 206.845 132.295 207.54 145.91 206.691ZM72.3408 111.207C73.2213 115.191 74.4957 125.475 77.0724 127.735L78.108 127.618C79.0581 126.182 79.2623 124.315 79.2647 122.619C79.3173 87.849 79.1161 53.0475 79.3039 18.297C79.3045 18.1236 78.9967 17.2935 78.9066 17.0692C77.9225 16.9151 78.0202 16.7868 77.1578 17.0229C67.3495 17.7305 62.4587 19.3966 53.239 23.1141L72.3408 111.207ZM89.6142 111.511C95.1953 85.0788 100.464 58.6062 107.264 32.4635C108.058 29.4091 108.738 26.2235 109.437 23.1445C98.5847 19.2724 94.6079 17.7879 83.0127 16.7762L83.0326 93.2747C83.0408 99.3027 82.0485 122.778 84.1004 126.927C85.5104 127.95 85.0441 127.954 86.3301 127.761C87.0609 124.418 89.2538 114.732 89.6142 111.511ZM65.1378 119.712C66.7971 123.228 67.8122 128.133 71.1964 129.931L71.8973 129.622C72.0863 127.087 51.764 29.845 49.7449 24.9037C41.0605 30.0547 36.8777 33.7365 30.1744 41.3929L65.1378 119.712ZM90.1419 132.651C93.3488 128.63 95.8851 121.959 97.9306 117.065C109.211 93.5718 121.831 65.3137 132.197 41.4164C125.866 34.03 121.115 30.1144 112.842 25.2189C106.927 51.3112 100.245 77.2905 95.2292 103.606C93.8321 110.936 90.1647 126.106 90.1419 132.651ZM15.5333 130.214L16.1085 130.358C24.1054 132.399 52.8956 145.342 57.6166 142.898C57.5294 141.443 56.7466 140.41 55.5536 139.535C42.914 130.259 30.1908 120.473 17.5162 111.313L15.4543 110.657C15.4146 117.177 15.4409 123.696 15.5333 130.214ZM15.6767 103.854C18.1089 105.445 18.5793 105.81 20.5516 107.936C29.8807 117.156 46.5117 126.579 56.6184 135.64C57.53 136.457 59.469 137.254 60.7181 137.305L61.3974 136.557C60.6479 132.834 21.5 85.5087 15.4602 76.8406C15.3724 82.855 14.9055 98.4597 15.6767 103.854ZM105.872 144.317C120.382 141.018 134.374 133.219 146.657 130.38C146.796 127.096 147.443 111.942 146.424 109.331C141.474 114.835 106.104 139.239 105.081 142.339L105.872 144.317ZM54.2003 152.958C54.4864 151.412 55.1914 149.031 54.5554 147.759C42.7163 143.625 27.1548 137.777 15.4982 134.376C15.3601 140.67 15.3286 146.967 15.4029 153.263C22.2992 153.254 48.9381 154.217 54.2003 152.958ZM146.801 153.454C146.863 150.294 147.453 137.23 146.215 135.385L145.868 135.187C136.43 137.465 118.394 144.673 107.895 148.157C107.254 149.493 107.818 151.138 108.117 152.712L108.57 153.221C120.923 153.236 134.548 152.972 146.801 153.454ZM27.3263 45.2024C21.438 52.0481 18.1802 63.4731 15.892 72.0487C18.7027 74.679 21.259 78.0397 23.6356 81.0789C34.7118 95.2454 46.0659 109.237 56.8355 123.635C57.6511 124.726 59.1144 126.981 60.0856 127.783C61.4448 129.551 62.6062 131.52 64.6335 132.261L65.2958 131.766C64.9635 127.877 28.8621 46.6628 27.3263 45.2024ZM134.688 45.111C130.904 55.8893 125.166 66.483 120.501 76.9068C112.789 94.1365 104.981 111.343 97.1343 128.508C96.6036 129.668 96.5065 131.018 96.8745 132.236C99.1756 132.832 100.501 130.057 101.684 128.315C111.381 116.401 120.866 104.316 130.138 92.0662C134.825 85.8626 140.859 76.9859 145.92 71.3469C144.361 63.2101 140.452 51.1864 134.688 45.111ZM146.113 77.5383C141.293 84.6166 102.028 133.785 101.103 136.613C102.246 137.667 101.747 137.346 103.365 137.687C109.161 133.256 141.783 106.637 146.226 108.021C147.268 105.488 147.26 80.3788 146.502 77.939L146.113 77.5383ZM58.5492 153.283L85.4502 153.197L104.025 153.167C100.716 138.112 93.1545 131.521 77.4843 132.228C65.6211 135.125 60.5403 141.529 58.5492 153.283Z" fill="#D09638" style="fill:#D09638;fill:color(display-p3 0.8157 0.5882 0.2196);fill-opacity:1;"/>
<path d="M26.1165 164.534C37.8217 164.142 131.516 163.238 136.729 165.331C137.654 165.703 137.587 165.944 138 166.932L137.499 168.347L136.124 168.859C111.365 168.217 86.5973 168.14 61.8365 168.627C56.5308 168.732 27.5374 169.967 25 167.271C25.0463 165.398 24.8326 166.125 26.1165 164.534Z" fill="#D3A259" style="fill:#D3A259;fill:color(display-p3 0.8275 0.6353 0.3490);fill-opacity:1;"/>
<path d="M41.9046 172.758C60.5556 171.999 89.5362 171.563 108.04 172.665C112.578 172.952 117.223 173.092 121.731 173.477C124.07 174.346 125.248 174.171 126 176.693C122.456 177.162 105.135 176.678 100.252 176.659C81.1482 176.447 62.0419 176.543 42.9409 176.945C39.6922 177.007 34.3708 177.343 32 175.153L32.0012 174.145C34.6035 171.621 38.4499 172.513 41.9046 172.758Z" fill="#D3A259" style="fill:#D3A259;fill:color(display-p3 0.8275 0.6353 0.3490);fill-opacity:1;"/>
<path d="M42.9726 172.65C61.311 171.999 89.8061 171.625 108 172.57C103.581 175.342 70.5804 172.857 63.0124 173.449C59.3457 173.736 39.8046 174.696 37 173.111C38.8781 173.149 41.3766 173.445 42.9726 172.65Z" fill="#D09638" style="fill:#D09638;fill:color(display-p3 0.8157 0.5882 0.2196);fill-opacity:1;"/>
<path d="M47.009 183.173L90.4776 183.134C97.7117 183.105 109.312 182.757 116.195 183.313C117.242 184.387 116.906 185.078 117 186.839L72.0911 186.898C65.514 186.913 54.0395 187.22 47.8737 186.69C46.6963 185.424 47.0735 185.142 47.009 183.173Z" fill="#D09638" style="fill:#D09638;fill:color(display-p3 0.8157 0.5882 0.2196);fill-opacity:1;"/>
<path d="M64.0673 195.195C71.7516 195.165 91.1699 194.654 98.1752 195.418C99.1806 196.632 98.8863 197.042 99 198.76C90.0776 198.811 73.1011 199.347 64.8081 198.629C63.6769 197.378 64.0622 197.135 64.0673 195.195Z" fill="#D09638" style="fill:#D09638;fill:color(display-p3 0.8157 0.5882 0.2196);fill-opacity:1;"/>
<path d="M121 173.099C122.591 173.157 129.06 172.807 129.707 173.159C130.038 175.661 130.265 174.943 129.375 176.674C127.574 177.027 126.951 177.03 125.122 176.972C124.396 173.935 123.258 174.145 121 173.099Z" fill="#D09638" style="fill:#D09638;fill:color(display-p3 0.8157 0.5882 0.2196);fill-opacity:1;"/>
<path d="M15.435 104C17.7126 105.706 18.1531 106.098 20 108.378L17.1576 112L15.2268 111.297C14.926 107.963 14.8592 107.251 15.435 104Z" fill="#D3A259" style="fill:#D3A259;fill:color(display-p3 0.8275 0.6353 0.3490);fill-opacity:1;"/>
<path d="M623.414 0.0612352C649.283 -1.24939 671.325 18.6369 672.676 44.5034C674.026 70.37 654.174 92.4434 628.31 93.8337C602.389 95.2268 580.257 75.3219 578.903 49.3991C577.55 23.4762 597.49 1.37467 623.414 0.0612352ZM635.04 87.9106C667.885 75.6087 666.321 21.7334 636.072 7.75435C629.88 4.8931 623.593 5.62718 616.96 6.19624C574.62 22.1384 590.815 96.7315 635.04 87.9106Z" fill="#673403" style="fill:#673403;fill:color(display-p3 0.4039 0.2039 0.0118);fill-opacity:1;"/>
<path d="M475.572 20.4277C475.315 12.0914 476.369 7.79112 468.236 3.9155C470.762 1.40112 483.678 1.97954 487.468 2.00204C501.589 2.08267 518.403 1.36174 529.293 11.9358C537.717 20.1146 537.461 34.1367 528.712 41.9161C523.809 46.2755 520.817 47.4586 514.637 49.568C524.561 60.5695 531.49 72.6596 540.501 84.3136C543.131 87.7139 547.798 85.9721 550.723 90.4214C545.501 95.378 528.798 89.0948 524.447 83.1886C520.674 78.0642 503.743 56.858 503.26 52.1939C499.185 51.8171 492.529 51.9774 488.257 51.9483C488.886 66.4252 483.311 81.2873 496.223 90.203C494.424 91.5905 472.251 91.1058 468.663 90.7205L467.846 89.6302C469.246 88.958 470.832 88.223 471.912 87.0689C478.494 80.033 475.577 32.8645 475.572 20.4277ZM488.069 47.5252L497.293 47.5411C497.848 47.5496 498.404 47.5533 498.96 47.5533C519.593 47.5242 527.913 27.7917 514.208 12.3052C508.61 5.98172 497.744 6.58831 489.801 6.95488C487.652 8.86925 488.298 8.8008 488.036 12.3727C488.344 22.1677 488.63 37.7217 488.069 47.5252Z" fill="#673403" style="fill:#673403;fill:color(display-p3 0.4039 0.2039 0.0118);fill-opacity:1;"/>
<path d="M488.069 47.5252L497.293 47.5411L502.772 47.9908C503.974 50.029 503.62 49.3139 503.26 52.1939C499.185 51.8171 492.529 51.9774 488.257 51.9483L488.069 47.5252Z" fill="#5D3108" style="fill:#5D3108;fill:color(display-p3 0.3647 0.1922 0.0314);fill-opacity:1;"/>
<path d="M737.023 51.7579C734.745 51.8047 729.336 51.6257 727.592 52.6269C726.58 59.0985 725.98 81.3425 729.964 87.5788C731.305 89.6713 734.567 87.89 734.877 90.1832C729.242 91.5988 713.548 90.8835 707.127 90.5732L706.32 89.7791C708.608 88.0457 709.348 87.7288 711.983 86.5607C717.814 80.4528 713.398 31.5734 714.57 20.5259C715.348 13.1113 713.736 7.45628 707.248 3.66972C712.789 0.560029 748.161 2.30939 755.558 4.43939C762.195 6.29283 767.792 10.7478 771.092 16.7919C773.698 21.5225 774.261 27.1119 772.648 32.2663C769.648 41.9919 762.42 46.31 753.383 49.2313C762.673 60.4353 776.595 86.8391 788.651 89.1416L788.83 90.1869C769.114 98.4979 756.205 76.1216 748.161 62.6657C746.295 59.5466 743.67 56.2494 742.705 52.7732C741.073 52.2988 738.748 52.0269 737.023 51.7579ZM728.811 47.6732C734.136 47.4754 741.523 47.3966 746.689 46.9241C753.608 43.0232 754.611 41.7744 758.82 34.9466C760.302 9.05471 750.87 6.4588 727.527 6.96973L727.508 7.59126C727.358 13.3944 726.177 44.901 728.811 47.6732Z" fill="#673403" style="fill:#673403;fill:color(display-p3 0.4039 0.2039 0.0118);fill-opacity:1;"/>
<path d="M728.811 47.6732C734.136 47.4754 741.523 47.3966 746.689 46.9241C746.558 49.0363 744.636 51.951 742.705 52.7732C741.073 52.2988 738.748 52.0269 737.023 51.7579C733.367 51.5132 731.811 51.3493 728.211 50.5646L727.357 49.1575L728.811 47.6732Z" fill="#5D3108" style="fill:#5D3108;fill:color(display-p3 0.3647 0.1922 0.0314);fill-opacity:1;"/>
<path d="M267.927 2.65181L275.944 2.31152C283.961 25.1453 295.34 48.1534 304.656 70.5071C308.776 80.3912 311.237 86.4043 321.358 90.474C311.103 91.5259 300.118 90.9868 289.864 90.3418L289.434 89.4803C292.233 88.5128 292.785 88.389 294.998 86.4549C296.739 81.5068 289.63 68.1671 287.332 61.4949L271.311 61.4312L250.034 61.3974C247.726 68.1221 242.874 75.5537 241.511 82.539C240.27 88.8924 245.668 87.384 247.755 90.0493C243.504 91.2662 232.132 90.8668 227.518 90.6334L227 89.6771C227.409 89.3518 230.577 86.7887 230.713 86.649C238.379 78.7674 264.418 18.2077 265.339 10.8137C264.705 7.64681 262.782 6.29212 260.435 4.10962L260.772 3.10088L267.927 2.65181ZM252.515 56.6547L268.498 56.6256L284.922 56.6846C282.923 52.0243 269.346 19.9234 268.165 18.8846L252.515 56.6547Z" fill="#673403" style="fill:#673403;fill:color(display-p3 0.4039 0.2039 0.0118);fill-opacity:1;"/>
<path d="M842.307 3.01357L858.489 2.31982C863.861 14.8429 871.82 32.7473 876.217 45.1983C882.451 55.687 887.823 72.7767 893.448 83.9629C894.01 85.0823 899.439 88.7592 900.939 89.7905L899.757 90.5133C893.842 90.8648 878.607 91.4967 873.376 90.1664C875.936 88.357 876.367 88.072 878.167 85.5323C879.395 80.4239 872.139 67.0636 869.542 61.4761L833.223 61.3964C830.851 67.253 826.07 77.5626 825.61 83.5851C825.348 87.1382 828.573 87.0783 831.404 90.0333C827.026 91.073 814.454 91.3411 809.804 90.7345C809.711 90.3839 809.607 90.0333 809.514 89.6826C814.932 87.457 817.398 84.862 820.098 79.2848C829.857 59.1014 837.414 35.7539 847.473 15.8404C849.226 8.5242 847.979 7.88013 842.307 3.01357ZM865.257 51.0258C860.232 41.183 856.642 29.3114 850.989 18.6792C846.845 28.7011 838.698 47.0133 835.67 56.6883C841.407 56.6967 862.407 57.1026 866.926 56.3723C866.701 53.8955 866.298 53.3414 865.257 51.0258Z" fill="#673403" style="fill:#673403;fill:color(display-p3 0.4039 0.2039 0.0118);fill-opacity:1;"/>
<path d="M742.378 196.579C741.85 175.454 742.773 145.596 741.323 124.01C741.095 120.612 733.377 117.549 732.215 114.81C736.757 113.248 755.465 112.445 758.82 115.309C756.687 116.514 749.64 121.692 749.521 124.106C747.963 155.319 751.222 188.087 749.113 219.183L747.231 220.398C743.468 220.071 743.049 219.625 740.221 217.225C714.802 188.825 687.034 161.452 661.147 132.744C661.303 146.572 658.451 208.021 666.193 215.51C669.309 216.315 669.728 216.332 672.377 217.969L671.598 218.833C664.575 219.375 648.899 220.994 642.775 218.829L642.979 217.856C643.77 217.654 644.561 217.443 645.34 217.221C648.731 216.257 651.452 215.225 653.07 212.049C655.431 207.442 656.426 130.536 654.196 124.42C652.579 120.006 646.742 117.415 642.607 115.392L643.458 114.127C652.147 113.302 657.744 113.63 666.444 114.007C672.892 119.675 687.106 135.966 693.721 143.208C709.804 160.791 726.738 178.726 742.378 196.579Z" fill="#673403" style="fill:#673403;fill:color(display-p3 0.4039 0.2039 0.0118);fill-opacity:1;"/>
<path d="M850.354 111.398C863.319 111.654 871.744 113.993 883.761 118.931C885.814 119.778 888.381 118.315 890.222 117.324C891.594 123.17 891.806 141.5 892.543 149.616C885.178 135.66 878.762 121.889 861.579 118.471C805.52 107.316 794.931 181.791 831.775 210.089C846.984 221.769 865.718 218.328 880.313 206.862L880.458 183.467C880.336 171.76 872.079 171.977 862.616 168.895C875.593 169.322 888.57 169.325 901.547 168.902L902.607 170.05C896.816 174.719 895.578 175.688 895.555 183.578C895.533 191.851 895.745 200.124 895.912 208.396C884.152 215.445 875.303 219.703 861.445 221.657C828.584 226.29 797.999 209.057 794.016 173.669C792.197 158.786 796.504 143.801 805.922 132.223C818.017 117.394 832.478 113.252 850.354 111.398Z" fill="#673403" style="fill:#673403;fill:color(display-p3 0.4039 0.2039 0.0118);fill-opacity:1;"/>
<path d="M347.345 2.71282C351.819 2.59939 368.908 1.64691 371.429 3.39066L371.45 3.37189C363.282 9.18439 362.824 9.40938 363.283 20.1006C363.941 35.4259 362.47 50.0866 364.34 65.3669C367.728 95.7719 414.998 95.3163 417.635 64.6188C419.116 47.3894 418.045 27.7366 417.451 10.3216C417.337 7.01035 412.604 5.16816 410.024 3.87629L410.144 2.78687C413.57 1.92155 424.176 2.45125 428.34 2.545L431.697 2.81874L432.005 3.78531C431.1 4.26718 426.67 6.63158 426.401 7.23908C416.179 30.3578 433.229 63.82 413.771 83.9125C407.322 90.5716 396.201 93.4431 386.88 93.0888C336.098 91.1603 353.58 42.9475 349.948 9.68313C349.771 8.06407 345.234 4.93657 343.777 3.43094L347.345 2.71282Z" fill="#673403" style="fill:#673403;fill:color(display-p3 0.4039 0.2039 0.0118);fill-opacity:1;"/>
<path d="M235.13 113.948C241.667 113.693 260.193 112.805 265.669 114.03L265.906 115.357C262.496 116.515 255.689 118.965 255.813 123.192C256.219 137.671 252.166 204.587 257.992 213.896C265.748 215.708 281.407 215.678 289.254 213.955C302.903 210.954 304.19 206.637 310.648 196.651L311.607 197.312L311.37 201.575L307.566 219.825C297.608 220.392 240.944 220.961 232.567 219.297L232.341 217.995C235.051 216.515 236.767 215.895 238.596 213.398C241.238 204.889 240.357 136.163 239.352 122.838C238.968 117.622 233.312 118.555 231.607 114.695L235.13 113.948Z" fill="#673403" style="fill:#673403;fill:color(display-p3 0.4039 0.2039 0.0118);fill-opacity:1;"/>
<path d="M486.607 195.116C484.115 201.131 478.098 217.845 473.371 221.398C470.722 220.54 470.026 220.192 468.645 217.527C454.656 190.496 439.691 134.714 418.607 115.136L419.663 114.014C425.478 113.665 449.021 112.085 451.906 115.942C450.009 117.136 447.393 118.44 446.483 120.591C444.361 125.628 474.325 191.173 478.221 200.973L483.105 190.156L486.607 195.116Z" fill="#673403" style="fill:#673403;fill:color(display-p3 0.4039 0.2039 0.0118);fill-opacity:1;"/>
<path d="M575.965 205.703C575.048 178.646 576.253 151.308 575.6 124.232C575.468 118.672 568.591 118.626 567.607 114.18C574.804 112.419 592.791 114.071 600.607 114.874L591.222 120.472C589.961 138.564 590.735 166.125 590.702 184.912C590.636 191.287 589.828 207.87 591.962 213.213C595.301 216.578 596.473 217.042 600.596 219.216L599.977 220.137C593.875 220.284 573.787 220.985 568.901 219.219C572.372 212.665 575.833 216.098 575.965 205.703Z" fill="#673403" style="fill:#673403;fill:color(display-p3 0.4039 0.2039 0.0118);fill-opacity:1;"/>
<path d="M589.591 204.904C589.58 200.239 588.843 187.597 590.618 184.398C590.551 190.865 589.736 207.689 591.89 213.109C595.261 216.523 596.444 216.994 600.607 219.199L599.982 220.134C593.821 220.282 573.541 220.994 568.607 219.202C572.112 212.553 575.606 216.035 575.74 205.49C579.635 204.81 585.472 204.945 589.591 204.904Z" fill="#5D3108" style="fill:#5D3108;fill:color(display-p3 0.3647 0.1922 0.0314);fill-opacity:1;"/>
<path d="M347.607 114.074C352.969 113.443 377.177 112.569 381.017 115.079C376.564 117.661 372.724 120.549 372.701 126.399C372.588 154.691 371.179 183.713 373.258 211.852C373.531 215.54 378.847 217.291 381.607 218.657L380.96 219.852C375.223 220.16 351.64 221.318 347.664 218.888C352.083 216.589 356.116 214.744 356.479 209.259C358.217 184.721 356.729 159.473 357.036 134.939C357.309 112.765 352.651 122.503 347.607 114.074Z" fill="#673403" style="fill:#673403;fill:color(display-p3 0.4039 0.2039 0.0118);fill-opacity:1;"/>
<path d="M491.607 169.032C495.198 159.451 508.655 129.837 508.418 122.032C506.792 118.55 504.478 117.123 501.486 114.8L501.949 113.85C509.886 112.932 523.219 113.634 531.607 114.014C529.925 114.698 523.129 117.459 522.192 118.441C509.028 132.185 503.473 156.913 495.299 173.398L491.607 169.032Z" fill="#5D3108" style="fill:#5D3108;fill:color(display-p3 0.3647 0.1922 0.0314);fill-opacity:1;"/>
<path d="M491.842 168.398L495.607 172.868L486.2 195.398L482.607 190.282C485.428 182.879 488.514 175.58 491.842 168.398Z" fill="#5D3108" style="fill:#5D3108;fill:color(display-p3 0.3647 0.1922 0.0314);fill-opacity:1;"/>
</svg>
