<svg width="676" height="223" viewBox="0 0 676 223" fill="none" xmlns="http://www.w3.org/2000/svg">
<path d="M396.414 0.0612352C422.283 -1.24939 444.325 18.6369 445.676 44.5034C447.026 70.37 427.174 92.4434 401.31 93.8337C375.389 95.2268 353.257 75.3219 351.903 49.3991C350.55 23.4762 370.49 1.37467 396.414 0.0612352ZM408.04 87.9106C440.885 75.6087 439.321 21.7334 409.072 7.75435C402.88 4.8931 396.593 5.62718 389.96 6.19624C347.62 22.1384 363.815 96.7315 408.04 87.9106Z" fill="#673403" style="fill:#673403;fill:color(display-p3 0.4039 0.2039 0.0118);fill-opacity:1;"/>
<path d="M248.572 20.4277C248.315 12.0914 249.369 7.79112 241.236 3.9155C243.762 1.40112 256.678 1.97954 260.468 2.00204C274.589 2.08267 291.403 1.36174 302.293 11.9358C310.717 20.1146 310.461 34.1367 301.712 41.9161C296.809 46.2755 293.817 47.4586 287.637 49.568C297.561 60.5695 304.49 72.6596 313.501 84.3136C316.131 87.7139 320.798 85.9721 323.723 90.4214C318.501 95.378 301.798 89.0948 297.447 83.1886C293.674 78.0642 276.743 56.858 276.26 52.1939C272.185 51.8171 265.529 51.9774 261.257 51.9483C261.886 66.4252 256.311 81.2873 269.223 90.203C267.424 91.5905 245.251 91.1058 241.663 90.7205L240.846 89.6302C242.246 88.958 243.832 88.223 244.912 87.0689C251.494 80.033 248.577 32.8645 248.572 20.4277ZM261.069 47.5252L270.293 47.5411C270.848 47.5496 271.404 47.5533 271.96 47.5533C292.593 47.5242 300.913 27.7917 287.208 12.3052C281.61 5.98172 270.744 6.58831 262.801 6.95488C260.652 8.86925 261.298 8.8008 261.036 12.3727C261.344 22.1677 261.63 37.7217 261.069 47.5252Z" fill="#673403" style="fill:#673403;fill:color(display-p3 0.4039 0.2039 0.0118);fill-opacity:1;"/>
<path d="M261.069 47.5252L270.293 47.5411L275.772 47.9908C276.974 50.029 276.62 49.3139 276.26 52.1939C272.185 51.8171 265.529 51.9774 261.257 51.9483L261.069 47.5252Z" fill="#5D3108" style="fill:#5D3108;fill:color(display-p3 0.3647 0.1922 0.0314);fill-opacity:1;"/>
<path d="M510.023 51.7579C507.745 51.8047 502.336 51.6257 500.592 52.6269C499.58 59.0985 498.98 81.3425 502.964 87.5788C504.305 89.6713 507.567 87.89 507.877 90.1832C502.242 91.5988 486.548 90.8835 480.127 90.5732L479.32 89.7791C481.608 88.0457 482.348 87.7288 484.983 86.5607C490.814 80.4528 486.398 31.5734 487.57 20.5259C488.348 13.1113 486.736 7.45628 480.248 3.66972C485.789 0.560029 521.161 2.30939 528.558 4.43939C535.195 6.29283 540.792 10.7478 544.092 16.7919C546.698 21.5225 547.261 27.1119 545.648 32.2663C542.648 41.9919 535.42 46.31 526.383 49.2313C535.673 60.4353 549.595 86.8391 561.651 89.1416L561.83 90.1869C542.114 98.4979 529.205 76.1216 521.161 62.6657C519.295 59.5466 516.67 56.2494 515.705 52.7732C514.073 52.2988 511.748 52.0269 510.023 51.7579ZM501.811 47.6732C507.136 47.4754 514.523 47.3966 519.689 46.9241C526.608 43.0232 527.611 41.7744 531.82 34.9466C533.302 9.05471 523.87 6.4588 500.527 6.96973L500.508 7.59126C500.358 13.3944 499.177 44.901 501.811 47.6732Z" fill="#673403" style="fill:#673403;fill:color(display-p3 0.4039 0.2039 0.0118);fill-opacity:1;"/>
<path d="M501.811 47.6732C507.136 47.4754 514.523 47.3966 519.689 46.9241C519.558 49.0363 517.636 51.951 515.705 52.7732C514.073 52.2988 511.748 52.0269 510.023 51.7579C506.367 51.5132 504.811 51.3493 501.211 50.5646L500.357 49.1575L501.811 47.6732Z" fill="#5D3108" style="fill:#5D3108;fill:color(display-p3 0.3647 0.1922 0.0314);fill-opacity:1;"/>
<path d="M40.9266 2.65181L48.9441 2.31152C56.9607 25.1453 68.34 48.1534 77.6559 70.5071C81.7763 80.3912 84.2372 86.4043 94.3584 90.474C84.1031 91.5259 73.1175 90.9868 62.8641 90.3418L62.4338 89.4803C65.2332 88.5128 65.7853 88.389 67.9978 86.4549C69.7388 81.5068 62.6297 68.1671 60.3319 61.4949L44.3109 61.4312L23.0344 61.3974C20.7263 68.1221 15.8738 75.5537 14.5107 82.539C13.2703 88.8924 18.6685 87.384 20.7554 90.0493C16.5038 91.2662 5.13192 90.8668 0.518478 90.6334L0 89.6771C0.40875 89.3518 3.57659 86.7887 3.71252 86.649C11.3794 78.7674 37.4175 18.2077 38.3391 10.8137C37.7053 7.64681 35.7825 6.29212 33.435 4.10962L33.7725 3.10088L40.9266 2.65181ZM25.515 56.6547L41.4984 56.6256L57.9225 56.6846C55.9228 52.0243 42.3459 19.9234 41.1647 18.8846L25.515 56.6547Z" fill="#673403" style="fill:#673403;fill:color(display-p3 0.4039 0.2039 0.0118);fill-opacity:1;"/>
<path d="M615.307 3.01357L631.489 2.31982C636.861 14.8429 644.82 32.7473 649.217 45.1983C655.451 55.687 660.823 72.7767 666.448 83.9629C667.01 85.0823 672.439 88.7592 673.939 89.7905L672.757 90.5133C666.842 90.8648 651.607 91.4967 646.376 90.1664C648.936 88.357 649.367 88.072 651.167 85.5323C652.395 80.4239 645.139 67.0636 642.542 61.4761L606.223 61.3964C603.851 67.253 599.07 77.5626 598.61 83.5851C598.348 87.1382 601.573 87.0783 604.404 90.0333C600.026 91.073 587.454 91.3411 582.804 90.7345C582.711 90.3839 582.607 90.0333 582.514 89.6826C587.932 87.457 590.398 84.862 593.098 79.2848C602.857 59.1014 610.414 35.7539 620.473 15.8404C622.226 8.5242 620.979 7.88013 615.307 3.01357ZM638.257 51.0258C633.232 41.183 629.642 29.3114 623.989 18.6792C619.845 28.7011 611.698 47.0133 608.67 56.6883C614.407 56.6967 635.407 57.1026 639.926 56.3723C639.701 53.8955 639.298 53.3414 638.257 51.0258Z" fill="#673403" style="fill:#673403;fill:color(display-p3 0.4039 0.2039 0.0118);fill-opacity:1;"/>
<path d="M515.378 196.579C514.85 175.454 515.773 145.596 514.323 124.01C514.095 120.612 506.377 117.549 505.215 114.81C509.757 113.248 528.465 112.445 531.82 115.309C529.687 116.514 522.64 121.692 522.521 124.106C520.963 155.319 524.222 188.087 522.113 219.183L520.231 220.398C516.468 220.071 516.049 219.625 513.221 217.225C487.802 188.825 460.034 161.452 434.147 132.744C434.303 146.572 431.451 208.021 439.193 215.51C442.309 216.315 442.728 216.332 445.377 217.969L444.598 218.833C437.575 219.375 421.899 220.994 415.775 218.829L415.979 217.856C416.77 217.654 417.561 217.443 418.34 217.221C421.731 216.257 424.452 215.225 426.07 212.049C428.431 207.442 429.426 130.536 427.196 124.42C425.579 120.006 419.742 117.415 415.607 115.392L416.458 114.127C425.147 113.302 430.744 113.63 439.444 114.007C445.892 119.675 460.106 135.966 466.721 143.208C482.804 160.791 499.738 178.726 515.378 196.579Z" fill="#673403" style="fill:#673403;fill:color(display-p3 0.4039 0.2039 0.0118);fill-opacity:1;"/>
<path d="M623.354 111.398C636.319 111.654 644.744 113.993 656.761 118.931C658.814 119.778 661.381 118.315 663.222 117.324C664.594 123.17 664.806 141.5 665.543 149.616C658.178 135.66 651.762 121.889 634.579 118.471C578.52 107.316 567.931 181.791 604.775 210.089C619.984 221.769 638.718 218.328 653.313 206.862L653.458 183.467C653.336 171.76 645.079 171.977 635.616 168.895C648.593 169.322 661.57 169.325 674.547 168.902L675.607 170.05C669.816 174.719 668.578 175.688 668.555 183.578C668.533 191.851 668.745 200.124 668.912 208.396C657.152 215.445 648.303 219.703 634.445 221.657C601.584 226.29 570.999 209.057 567.016 173.669C565.197 158.786 569.504 143.801 578.922 132.223C591.017 117.394 605.478 113.252 623.354 111.398Z" fill="#673403" style="fill:#673403;fill:color(display-p3 0.4039 0.2039 0.0118);fill-opacity:1;"/>
<path d="M120.345 2.71282C124.819 2.59939 141.908 1.64691 144.429 3.39066L144.45 3.37189C136.282 9.18439 135.824 9.40938 136.283 20.1006C136.941 35.4259 135.47 50.0866 137.34 65.3669C140.728 95.7719 187.998 95.3163 190.635 64.6188C192.116 47.3894 191.045 27.7366 190.451 10.3216C190.337 7.01035 185.604 5.16816 183.024 3.87629L183.144 2.78687C186.57 1.92155 197.176 2.45125 201.34 2.545L204.697 2.81874L205.005 3.78531C204.1 4.26718 199.67 6.63158 199.401 7.23908C189.179 30.3578 206.229 63.82 186.771 83.9125C180.322 90.5716 169.201 93.4431 159.88 93.0888C109.098 91.1603 126.58 42.9475 122.948 9.68313C122.771 8.06407 118.234 4.93657 116.777 3.43094L120.345 2.71282Z" fill="#673403" style="fill:#673403;fill:color(display-p3 0.4039 0.2039 0.0118);fill-opacity:1;"/>
<path d="M8.12985 113.948C14.6667 113.693 33.1934 112.805 38.669 114.03L38.906 115.357C35.4965 116.515 28.6888 118.965 28.813 123.192C29.2194 137.671 25.1663 204.587 30.9919 213.896C38.748 215.708 54.4071 215.678 62.2536 213.955C75.903 210.954 77.19 206.637 83.6478 196.651L84.6074 197.312L84.3704 201.575L80.5657 219.825C70.608 220.392 13.9443 220.961 5.56717 219.297L5.34129 217.995C8.05086 216.515 9.76696 215.895 11.5959 213.398C14.2377 204.889 13.357 136.163 12.3522 122.838C11.9684 117.622 6.31219 118.555 4.60742 114.695L8.12985 113.948Z" fill="#673403" style="fill:#673403;fill:color(display-p3 0.4039 0.2039 0.0118);fill-opacity:1;"/>
<path d="M259.607 195.116C257.115 201.131 251.098 217.845 246.371 221.398C243.722 220.54 243.026 220.192 241.645 217.527C227.656 190.496 212.691 134.714 191.607 115.136L192.663 114.014C198.478 113.665 222.021 112.085 224.906 115.942C223.009 117.136 220.393 118.44 219.483 120.591C217.361 125.628 247.325 191.173 251.221 200.973L256.105 190.156L259.607 195.116Z" fill="#673403" style="fill:#673403;fill:color(display-p3 0.4039 0.2039 0.0118);fill-opacity:1;"/>
<path d="M348.965 205.703C348.048 178.646 349.253 151.308 348.6 124.232C348.468 118.672 341.591 118.626 340.607 114.18C347.804 112.419 365.791 114.071 373.607 114.874L364.222 120.472C362.961 138.564 363.735 166.125 363.702 184.912C363.636 191.287 362.828 207.87 364.962 213.213C368.301 216.578 369.473 217.042 373.596 219.216L372.977 220.137C366.875 220.284 346.787 220.985 341.901 219.219C345.372 212.665 348.833 216.098 348.965 205.703Z" fill="#673403" style="fill:#673403;fill:color(display-p3 0.4039 0.2039 0.0118);fill-opacity:1;"/>
<path d="M362.591 204.904C362.58 200.239 361.843 187.597 363.618 184.398C363.551 190.865 362.736 207.689 364.89 213.109C368.261 216.523 369.444 216.994 373.607 219.199L372.982 220.134C366.821 220.282 346.541 220.994 341.607 219.202C345.112 212.553 348.606 216.035 348.74 205.49C352.635 204.81 358.472 204.945 362.591 204.904Z" fill="#5D3108" style="fill:#5D3108;fill:color(display-p3 0.3647 0.1922 0.0314);fill-opacity:1;"/>
<path d="M120.607 114.074C125.969 113.443 150.177 112.569 154.017 115.079C149.564 117.661 145.724 120.549 145.701 126.399C145.588 154.691 144.179 183.713 146.258 211.852C146.531 215.54 151.847 217.291 154.607 218.657L153.96 219.852C148.223 220.16 124.64 221.318 120.664 218.888C125.083 216.589 129.116 214.744 129.479 209.259C131.217 184.721 129.729 159.473 130.036 134.939C130.309 112.765 125.651 122.503 120.607 114.074Z" fill="#673403" style="fill:#673403;fill:color(display-p3 0.4039 0.2039 0.0118);fill-opacity:1;"/>
<path d="M264.607 169.032C268.198 159.451 281.655 129.837 281.418 122.032C279.792 118.55 277.478 117.123 274.486 114.8L274.949 113.85C282.886 112.932 296.219 113.634 304.607 114.014C302.925 114.698 296.129 117.459 295.192 118.441C282.028 132.185 276.473 156.913 268.299 173.398L264.607 169.032Z" fill="#5D3108" style="fill:#5D3108;fill:color(display-p3 0.3647 0.1922 0.0314);fill-opacity:1;"/>
<path d="M264.842 168.398L268.607 172.868L259.2 195.398L255.607 190.282C258.428 182.879 261.514 175.58 264.842 168.398Z" fill="#5D3108" style="fill:#5D3108;fill:color(display-p3 0.3647 0.1922 0.0314);fill-opacity:1;"/>
</svg>
